<svg id="Layer_1" data-name="Layer 1" xmlns="http://www.w3.org/2000/svg" viewBox="0 0 800 800"><defs><style>.cls-1{fill:#0052ff;}.cls-2{fill:#fff;}.cls-3{fill:none;}</style></defs><title>coinbase-logo-freelogovectors.net</title><path class="cls-1" d="M36.4,400.17c0-201.29,160.7-365.78,362.24-364.81,214.46,1,367.54,177,364.92,369.48C760.93,598.45,608.45,763.15,398.3,764.63,196.45,766.06,36.39,602.59,36.4,400.17Z"/><path class="cls-2" d="M286.51,175.62c66.25-35.94,149.1-38.82,218-8.63C578,198.39,633.07,266.47,651.13,344c-39.79.11-79.64,1.43-119.38-.75-23.57-66-105.11-101-170.37-78.14-57.79,17.94-101.26,76.87-96.72,138-.74,71.82,64,135.76,135.53,135.58,57.22,3.28,112.24-34.27,133.86-86.59,39.05-.29,78-.4,117.08.06C636.87,514.07,600,571.62,546.48,606.58c-60,42.5-139.27,53.94-209.71,34.85-66.64-18.57-125.35-65.21-156.46-127.25-32.49-62.1-37.32-137.94-12.13-203.44C189.11,253.13,232.35,204.2,286.51,175.62Z"/><rect class="cls-3" width="800" height="800"/></svg>